<svg viewBox="0 0 46 61.87" xmlns="http://www.w3.org/2000/svg" xmlns:xlink="http://www.w3.org/1999/xlink"><mask id="a" height="30.83" maskUnits="userSpaceOnUse" width="46" x="0" y="0"><path d="m0 .13h46v30.83h-46z" fill="#fff" fill-rule="evenodd" transform="translate(0 -.13)"/></mask><mask id="b" height="30.83" maskUnits="userSpaceOnUse" width="46" x="0" y="31.04"><path d="m0 31.17h46v30.83h-46z" fill="#fff" fill-rule="evenodd" transform="translate(0 -.13)"/></mask><g mask="url(#a)"><path d="m46 .15a.1.1 0 0 0 -.09 0l-41.91 13.94v-13.86a.1.1 0 0 0 -.1-.1h-3.8a.1.1 0 0 0 -.1.1v30.64a.12.12 0 0 0 0 .13h.13l45.8-15.27a.1.1 0 0 0 .07-.13v-15.37a.12.12 0 0 0 0-.08" fill="#36dddd" fill-rule="evenodd" transform="translate(0 -.13)"/></g><g mask="url(#b)"><path d="m46 31.19a.1.1 0 0 0 -.09 0l-45.84 15.25a.1.1 0 0 0 -.07.09v15.37a.12.12 0 0 0 0 .1.15.15 0 0 0 .09 0l41.91-13.95v13.85a.1.1 0 0 0 .1.1h3.8a.1.1 0 0 0 .1-.1v-30.63a.12.12 0 0 0 0-.08" fill="#36dddd" fill-rule="evenodd" transform="translate(0 -.13)"/></g></svg>