<svg id="Layer_1" data-name="Layer 1" xmlns="http://www.w3.org/2000/svg" viewBox="0 0 147.91 42.91">
  <defs>
    <mask id="mask" x="0" y="0" width="32" height="21.88" maskUnits="userSpaceOnUse">
      <g transform="translate(0 -.09)">
        <g id="mask-2">
          <path id="path-1" class="cls-1" d="M0 .09h32v21.89H0V.09z"/>
        </g>
      </g>
    </mask>
    <mask id="mask-2-2" x="0" y="21.03" width="32" height="21.88" maskUnits="userSpaceOnUse">
      <g transform="translate(0 -.09)">
        <g id="mask-4">
          <path id="path-3" class="cls-1" d="M0 21.12h32V43H0V21.12z"/>
        </g>
      </g>
    </mask>
    <style>
      .cls-1{fill:#fff}.cls-1,.cls-2,.cls-4{fill-rule:evenodd}.cls-2{fill:#002938}.cls-4{fill:#36dddd}
    </style>
  </defs>
  <g id="Symbols">
    <g id="Arbor-Logo-FULL">
      <path id="Fill-1" class="cls-2" d="M51.6 41a.12.12 0 01-.11-.09l-1-3.73-1 3.73a.12.12 0 01-.11.09h-.83a.11.11 0 01-.1-.09L47 35.09c0-.05 0-.09.07-.09h1.07a.1.1 0 01.1.09l.82 3.77 1-3.77a.12.12 0 01.11-.09h.72c.05 0 .08 0 .1.09l1 3.77.79-3.77a.09.09 0 01.1-.09h1.06c.06 0 .08 0 .07.09l-1.46 5.82a.11.11 0 01-.11.09z" transform="translate(0 -.09)"/>
      <path id="Fill-3" class="cls-2" d="M55 35.09a.08.08 0 01.09-.09h3.82a.08.08 0 01.09.09V36a.08.08 0 01-.09.09h-2.57l-.05.05v1.19s0 .06.05.06h2.14a.08.08 0 01.09.09v.93a.08.08 0 01-.09.09h-2.14-.05v1.25l.05.05h2.57a.08.08 0 01.09.2v.94a.08.08 0 01-.09.09h-3.82a.08.08 0 01-.09-.09z" transform="translate(0 -.09)"/>
      <path id="Fill-5" class="cls-2" d="M64.14 38.76l-.62-2.1-.62 2.1zm-1.24-3.67A.12.12 0 0163 35h1a.11.11 0 01.1.09l1.9 5.82V41h-1.12s-.08 0-.1-.09l-.32-1h-1.92l-.31 1c0 .06 0 .09-.11.09h-1.06c-.06 0-.06 0-.06-.09z" transform="translate(0 -.09)"/>
      <path id="Fill-7" class="cls-2" d="M67 35.09a.08.08 0 01.09-.09h1.09a.08.08 0 01.09.09v4.75h2.59a.08.08 0 01.09.09v1a.08.08 0 01-.09.09h-3.77a.08.08 0 01-.09-.09z" transform="translate(0 -.09)"/>
      <path id="Fill-9" class="cls-2" d="M73.51 41a.08.08 0 01-.07-.09v-4.7-.05h-1.36a.08.08 0 01-.08-.09v-1a.08.08 0 01.08-.09h3.84a.08.08 0 01.08.09v1a.08.08 0 01-.08.09h-1.31v4.75a.08.08 0 01-.07.09z" transform="translate(0 -.09)"/>
      <path id="Fill-11" class="cls-2" d="M78 35.09a.08.08 0 01.08-.09h1a.08.08 0 01.07.09v2.25h1.68v-2.25A.08.08 0 0181 35h1a.08.08 0 01.08.09v5.82A.08.08 0 0182 41h-1a.08.08 0 01-.07-.09V38.6v-.05h-1.77v2.36A.08.08 0 0179 41h-1a.08.08 0 01-.08-.09z" transform="translate(0 -.09)"/>
      <path id="Fill-13" class="cls-2" d="M87 35.09a.08.08 0 01.08-.09H88a.14.14 0 01.13.09l1.35 3.42 1.33-3.42A.12.12 0 0191 35h.92a.08.08 0 01.08.09v5.82a.08.08 0 01-.08.09H91a.08.08 0 01-.08-.09v-3.38l-1 2.53a.16.16 0 01-.15.12h-.54a.16.16 0 01-.15-.12l-1-2.53v3.38A.08.08 0 0188 41h-.89a.08.08 0 01-.08-.09z" transform="translate(0 -.09)"/>
      <path id="Fill-15" class="cls-2" d="M97.14 38.76l-.62-2.1-.62 2.1zm-1.24-3.67A.12.12 0 0196 35h1a.11.11 0 01.1.09l1.9 5.82V41h-1.12s-.08 0-.1-.09l-.32-1h-1.92l-.31 1c0 .06 0 .09-.11.09h-1.06s-.07 0 0-.09z" transform="translate(0 -.09)"/>
      <path id="Fill-17" class="cls-2" d="M100 35.09a.08.08 0 01.08-.09h.92a.15.15 0 01.13.09l1.87 3.77v-3.77a.08.08 0 01.07-.09h.86a.08.08 0 01.08.09v5.82a.08.08 0 01-.08.09H103a.14.14 0 01-.13-.09l-1.84-3.77v3.77a.08.08 0 01-.07.09h-.86a.08.08 0 01-.08-.09z" transform="translate(0 -.09)"/>
      <path id="Fill-19" class="cls-2" d="M109.14 38.76l-.62-2.1-.62 2.1zm-1.24-3.67a.12.12 0 01.1-.09h1a.11.11 0 01.1.09l1.9 5.82V41h-1.06s-.08 0-.1-.09l-.32-1h-1.92l-.31 1c0 .06 0 .09-.11.09h-1.06s-.07 0 0-.09z" transform="translate(0 -.09)"/>
      <path id="Fill-21" class="cls-2" d="M112 38a5.44 5.44 0 01.14-1.59 2 2 0 013.69-.17.11.11 0 010 .13l-.8.38a.08.08 0 01-.11 0 .93.93 0 00-.88-.6.8.8 0 00-.81.65 4.84 4.84 0 00-.08 1.24 4.94 4.94 0 00.08 1.25.8.8 0 00.83.64.81.81 0 00.82-.6 2.6 2.6 0 00.06-.57h-.69a.08.08 0 01-.07-.09v-.82a.07.07 0 01.07-.08h1.76a.07.07 0 01.07.08v.48a5.3 5.3 0 01-.13 1.31A1.85 1.85 0 01114 41a1.82 1.82 0 01-1.87-1.41A5.44 5.44 0 01112 38" transform="translate(0 -.09)"/>
      <path id="Fill-23" class="cls-2" d="M118 35.09a.09.09 0 01.09-.09h3.82a.09.09 0 01.09.09V36a.08.08 0 01-.09.09h-2.57v1.3h2.14a.08.08 0 01.09.09v.93a.08.08 0 01-.09.09h-2.14v1.3h2.57a.08.08 0 01.09.2v.94a.09.09 0 01-.09.09h-3.82a.09.09 0 01-.09-.09z" transform="translate(0 -.09)"/>
      <path id="Fill-25" class="cls-2" d="M124 35.09a.08.08 0 01.08-.09h.92a.14.14 0 01.13.09l1.35 3.42 1.33-3.42A.12.12 0 01128 35h.92a.08.08 0 01.08.09v5.82a.08.08 0 01-.08.09H128a.08.08 0 01-.08-.09v-3.38l-1 2.53a.16.16 0 01-.15.12h-.54a.16.16 0 01-.15-.12l-1-2.53v3.38a.08.08 0 01-.08.09h-.89a.08.08 0 01-.08-.09z" transform="translate(0 -.09)"/>
      <path id="Fill-27" class="cls-2" d="M131 35.09a.08.08 0 01.09-.09h3.82a.09.09 0 01.09.09V36a.08.08 0 01-.09.09h-2.57l-.05.05v1.19s0 .06.05.06h2.14a.08.08 0 01.09.09v.93a.08.08 0 01-.09.09h-2.14-.05v1.25l.05.05h2.57a.08.08 0 01.09.2v.94a.09.09 0 01-.09.09h-3.82a.08.08 0 01-.09-.09z" transform="translate(0 -.09)"/>
      <path id="Fill-29" class="cls-2" d="M137 35.09a.08.08 0 01.08-.09h.92a.15.15 0 01.13.09l1.87 3.77v-3.77a.08.08 0 01.07-.09h.86a.08.08 0 01.08.09v5.82a.08.08 0 01-.08.09H140a.14.14 0 01-.13-.09l-1.84-3.77v3.77a.08.08 0 01-.07.09h-.86a.08.08 0 01-.08-.09z" transform="translate(0 -.09)"/>
      <path id="Fill-31" class="cls-2" d="M144.51 41a.08.08 0 01-.07-.09v-4.7s0-.05-.05-.05h-1.31a.08.08 0 01-.08-.09v-1a.08.08 0 01.08-.09h3.84a.08.08 0 01.08.09v1a.08.08 0 01-.08.09h-1.31s-.05 0-.05.05v4.7a.08.08 0 01-.07.09z" transform="translate(0 -.09)"/>
      <path id="Fill-33" class="cls-2" d="M63.1 17.14h-6.68L60 7.93c.23.8.38 1.23.59 1.85.12.34.25.73.43 1.26zM74 27.89l-3-1.46L62.34 3a.07.07 0 00-.06 0h-2.37a.08.08 0 00-.07 0L50 26.43l-3 1.46a.06.06 0 000 .11v1a.07.07 0 00.07.07h8.63a.07.07 0 00.07-.07v-1a.07.07 0 000-.06l-2.89-1.44 2.86-7.55h8l2.71 7.55-2.93 1.44a.07.07 0 000 .06v1a.07.07 0 00.07.07h10.34A.07.07 0 0074 29v-1a.06.06 0 000-.06z" transform="translate(0 -.09)"/>
      <path id="Fill-35" class="cls-2" d="M90 10.79a4.38 4.38 0 00-2.15-.64c-1.17 0-2.75.71-5.41 2.09v-2.17a.08.08 0 000-.05.07.07 0 00-.06 0l-7.27 1.5a.08.08 0 000 .07v.9a.06.06 0 000 .06l3.27 1v13l-3.17 1.37a.08.08 0 000 .07v1a.07.07 0 00.07.07h10.96a.07.07 0 00.07-.07V28a.08.08 0 000-.07l-3.91-1.41V13.45a7.33 7.33 0 012.65-.54h.82L87 15.2a.07.07 0 00.06 0h2.9a.07.07 0 00.07-.07v-4.27a.08.08 0 000-.07" transform="translate(0 -.09)"/>
      <path id="Fill-37" class="cls-2" d="M106.6 20.32c0 2.87-.95 5.13-2.69 6.38a7 7 0 01-4.41 1.13c-.61 0-1.22 0-1.84-.07V13.68a8.21 8.21 0 012.88-.48 5.61 5.61 0 014.46 1.85 7.93 7.93 0 011.63 5.27m-2.92-9.94a9.53 9.53 0 00-3.51 1c-.68.28-1.19.52-1.84.83l-.67.31V2.07a.07.07 0 00-.06 0l-7.58 1.58v.95a.06.06 0 000 .06l3.44 1V29a.07.07 0 00.05.07A33 33 0 00100 30a10.64 10.64 0 0011-10.75 9.85 9.85 0 00-2.12-6.31 6.69 6.69 0 00-5.2-2.56" transform="translate(0 -.09)"/>
      <path id="Fill-39" class="cls-2" d="M127.49 20.46c0 2.27-.47 7.54-4.88 7.54a4.36 4.36 0 01-4.13-2.85 13.59 13.59 0 01-1-5.42c0-4.92 1.78-7.73 4.88-7.73a4.37 4.37 0 014.18 2.93 14.41 14.41 0 011 5.53M122.73 10a9.33 9.33 0 00-7.12 2.92 10.73 10.73 0 00-2.61 7.43c0 5.77 3.74 9.65 9.31 9.65a9.34 9.34 0 007-3 10.82 10.82 0 002.69-7.35 10 10 0 00-2.51-6.91 9 9 0 00-6.76-2.74" transform="translate(0 -.09)"/>
      <path id="Fill-41" class="cls-2" d="M147.87 10.82a4.27 4.27 0 00-2.12-.64c-1.16 0-2.71.7-5.34 2.08v-2.17-.05a.07.07 0 00-.06 0l-7.17 1.49a.08.08 0 000 .07v.89a.07.07 0 000 .07l3.23 1v12.91l-3.12 1.37a.05.05 0 000 .06v1a.07.07 0 00.06.07h10.85a.07.07 0 00.07-.07v-1a.08.08 0 000-.07l-3.82-1.36v-13a7.14 7.14 0 012.62-.54h.8l1.09 2.28a.07.07 0 00.06 0h2.86a.07.07 0 00.07-.07v-4.26a.05.05 0 000-.06" transform="translate(0 -.09)"/>
      <g mask="url(#mask)" id="Group-46">
        <path id="Fill-44" class="cls-4" d="M32 .11h-.06L2.79 10V.16a.08.08 0 00-.07-.07H.07A.08.08 0 000 .16V21.9a.06.06 0 000 .1h.09L32 11.14a.08.08 0 00.05-.07V.16" transform="translate(0 -.09)"/>
      </g>
      <g mask="url(#mask-2-2)" id="Group-49">
        <path id="Fill-47" class="cls-4" d="M32 21.13h-.06L.05 32A.06.06 0 000 32v10.93A.09.09 0 000 43h.09l29.12-9.9v9.83a.07.07 0 00.07.07h2.65a.07.07 0 00.07-.07V21.19a.09.09 0 000-.06" transform="translate(0 -.09)"/>
      </g>
    </g>
  </g>
</svg>
