<?xml version="1.0" encoding="UTF-8"?>
<svg width="30px" height="23px" viewBox="0 0 30 23" version="1.1" xmlns="http://www.w3.org/2000/svg" xmlns:xlink="http://www.w3.org/1999/xlink">
    <!-- Generator: Sketch 60.1 (88133) - https://sketch.com -->
    <title>left arrow</title>
    <desc>Created with Sketch.</desc>
    <g id="Team-Page" stroke="none" stroke-width="1" fill="none" fill-rule="evenodd">
        <g id="Team/Desktop/1024" transform="translate(-11.000000, -2491.000000)" fill="#C96114">
            <g id="testimonials" transform="translate(0.000000, 2238.000000)">
                <path d="M40.7742266,263.945991 L30.1901565,253.228617 C29.8895123,252.923794 29.396951,252.923794 29.0959198,253.228617 L27.727737,254.614032 C27.4267059,254.918854 27.4267059,255.417227 27.727737,255.72205 L34.5779373,262.658135 L11.773859,262.658135 C11.3482366,262.658135 11,263.010758 11,263.441741 L11,265.400755 C11,265.831738 11.3482366,266.18436 11.773859,266.18436 L34.733096,266.18436 L27.727737,273.27795 C27.4267059,273.582773 27.4267059,274.081146 27.727737,274.385968 L29.0959198,275.771383 C29.396951,276.076206 29.8895123,276.076206 30.1901565,275.771383 L40.7742266,265.054009 C41.0752578,264.749187 41.0752578,264.250813 40.7742266,263.945991" id="left-arrow" transform="translate(26.000000, 264.500000) scale(-1, 1) translate(-26.000000, -264.500000) "></path>
            </g>
        </g>
    </g>
</svg>